<svg xmlns="http://www.w3.org/2000/svg" xmlns:xlink="http://www.w3.org/1999/xlink" id="Capa_1" x="0" y="0" version="1.1" viewBox="0 0 728 249" xml:space="preserve" style="enable-background:new 0 0 728 249"><style type="text/css">.st0{fill:#004987}.st1{fill:#fff}</style><path d="M50.9,146.5l42.2-78.2c1.8-3.6,3.6-4.3,7.2-4.3h13.9c3.6,0,5.1,0.9,5.7,4.1l14.8,78.4c0.6,3.3-0.9,5.1-4.6,5.1	h-12.7c-6.4,0-8-1.4-8.4-5.2l-1.2-8.9H81l-4.4,8.9c-1.7,3.8-3.7,5.2-9.7,5.2H53.3C49.4,151.5,49.1,149.8,50.9,146.5z M103.6,103.7	c-1-8.4,0.4-17.4,0.4-17.4h-1.1c0,0-1.6,8.9-5.5,17.3l-7.2,14.6h15.4L103.6,103.7z" class="st0"/><path d="M244.8,69l-13.6,77.5c-0.7,3.8-2.3,5.1-6.2,5.1h-13.4c-3.9,0-5.1-1.2-4.3-5.1l3.1-17.8	c1.5-8.1,3.5-15.9,11-32.3h-1.1c-2.1,4.1-8.5,15.4-12,20.5l-9.5,13.9c-1.6,2.5-3.1,3.5-6.4,3.5h-7.9c-3.3,0-4.4-0.7-5.3-3.5	l-4.8-13.9c-1.7-4.8-3.7-16-4.2-20.5h-1.1c1.4,17.8,0.9,23.9-0.7,32.4l-3.1,17.6c-0.6,3.8-2.2,5.1-6.2,5.1h-13	c-3.8,0-4.9-1.2-4.2-5.1L155.5,69c0.7-3.8,2.2-5.1,6.2-5.1h11.5c4.3,0,5.7,0.6,6.7,3.8l13.2,40.5l27.5-40.3c2.2-3.5,3.5-3.9,7.5-3.9	h12.5C244.4,64,245.5,65.2,244.8,69z" class="st1"/><path d="M294.6,62.1c24.3,0,35.6,14.7,31.9,36l-3.9,22.3c-3.7,21.2-18.9,32.9-43.3,32.9c-24.3,0-35.6-14.3-31.9-35.6	l3.8-22.3C254.9,74.2,270.2,62.1,294.6,62.1z M291.3,83.7c-8.6,0-14.3,4.1-15.7,11.8l-4.3,24.4c-1.4,7.8,2.8,11.8,11.5,11.8	c8.5,0,14.2-4.1,15.5-11.8l4.3-24.4C304,87.8,299.8,83.7,291.3,83.7z" class="st1"/><path d="M367,69.1l-10.7,60.8h29.6c3.9,0,5.1,1.2,4.3,5.2l-2,11.2c-0.7,3.8-2.2,5.2-6.2,5.2h-48.8	c-3.8,0-4.9-1.4-4.2-5.2l13.6-77.2c0.6-3.8,2.2-5.2,6-5.2h13.9C366.5,64,367.7,65.3,367,69.1z" class="st1"/><path d="M472.1,69.1l-2,11.1c-0.7,3.9-2.3,5.2-6.2,5.2h-32.7l-1.8,11.1h26c3.9,0,4.9,1.4,4.3,5.3l-2,11	c-0.7,3.9-2.2,5.3-6.2,5.3h-26l-2.1,11.8h33.7c3.8,0,4.9,1.2,4.2,5.2l-2,11.2c-0.6,3.8-2.2,5.2-6.2,5.2h-52.7	c-3.9,0-5.1-1.4-4.3-5.2l13.6-77.2c0.7-3.8,2.2-5.2,6.2-5.2h51.7C471.6,64,472.7,65.3,472.1,69.1z" class="st1"/><path d="M65.7,197.4v-24.6h-8.5c-0.3,0-0.5-0.1-0.5-0.5v-0.7c0-0.4,0.1-0.5,0.5-0.5h18.6c0.3,0,0.5,0.1,0.5,0.5v0.7	c0,0.3-0.1,0.5-0.5,0.5h-8.4v24.6c0,0.4-0.1,0.5-0.5,0.5h-0.8C65.8,197.9,65.7,197.8,65.7,197.4z" class="st1"/><path d="M81.1,197.4v-25.7c0-0.4,0.1-0.5,0.5-0.5H97c0.3,0,0.5,0.1,0.5,0.5v0.7c0,0.3-0.2,0.5-0.5,0.5H82.9v10.7h12.5	c0.4,0,0.5,0.2,0.5,0.5v0.7c0,0.4-0.1,0.5-0.5,0.5H82.9v11.1h14.6c0.3,0,0.5,0.1,0.5,0.5v0.7c0,0.4-0.1,0.5-0.5,0.5H81.6	C81.2,197.9,81.1,197.8,81.1,197.4z" class="st1"/><path d="M102.7,189.1v-9.2c0-5.7,3.5-9.3,10.2-9.3c5.8,0,8.6,2.3,9.9,6.5c0.2,0.4,0,0.5-0.3,0.6l-0.7,0.2	c-0.3,0.1-0.5,0.1-0.6-0.3c-1.1-3.7-3.3-5.5-8.2-5.5c-5.6,0-8.4,2.9-8.4,7.6v9.3c0,4.7,2.9,7.6,8.4,7.6c5,0,7.2-2,8.3-5.7	c0.1-0.3,0.3-0.4,0.6-0.3l0.7,0.3c0.3,0.1,0.5,0.3,0.3,0.6c-1.3,4.3-4,6.7-10,6.7C106.4,198.4,102.7,194.9,102.7,189.1z" class="st1"/><path d="M128.6,197.4v-25.7c0-0.4,0.1-0.5,0.5-0.5h0.8c0.3,0,0.4,0.2,0.5,0.3l13,18.6c1.4,2,2.5,4.1,3.4,5.3h0.1	c0-1.6-0.3-4.1-0.3-6.7v-17c0-0.3,0.1-0.5,0.5-0.5h0.8c0.4,0,0.5,0.1,0.5,0.5v25.7c0,0.4-0.1,0.5-0.5,0.5h-0.8c-0.3,0-0.4,0-0.6-0.3	l-13.3-19c-1.2-1.8-2.3-3.8-3-4.9h-0.1c0,1.4,0.2,3.8,0.2,6.2v17.5c0,0.4-0.1,0.5-0.5,0.5h-0.8C128.7,197.9,128.6,197.8,128.6,197.4	z" class="st1"/><path d="M154.9,189.1V180c0-5.8,3.5-9.3,10.2-9.3c6.6,0,10.1,3.5,10.1,9.3v9.2c0,5.8-3.5,9.3-10.1,9.3	C158.4,198.4,154.9,194.9,154.9,189.1z M173.4,189.1V180c0-4.8-2.9-7.7-8.4-7.7c-5.5,0-8.4,2.9-8.4,7.7v9.1c0,4.8,2.9,7.7,8.4,7.7	C170.5,196.8,173.4,193.9,173.4,189.1z" class="st1"/><path d="M181.7,197.4v-25.7c0-0.4,0.1-0.5,0.5-0.5h0.8c0.3,0,0.5,0.1,0.5,0.5v24.6h13.7c0.3,0,0.5,0.1,0.5,0.5v0.7	c0,0.4-0.1,0.5-0.5,0.5h-15C181.8,197.9,181.7,197.8,181.7,197.4z" class="st1"/><path d="M201,189.1V180c0-5.8,3.5-9.3,10.2-9.3c6.6,0,10.1,3.5,10.1,9.3v9.2c0,5.8-3.5,9.3-10.1,9.3	C204.5,198.4,201,194.9,201,189.1z M219.6,189.1V180c0-4.8-2.9-7.7-8.4-7.7c-5.5,0-8.4,2.9-8.4,7.7v9.1c0,4.8,2.9,7.7,8.4,7.7	C216.6,196.8,219.6,193.9,219.6,189.1z" class="st1"/><path d="M227,189.1v-9.2c0-5.7,3.5-9.3,10.2-9.3c5.8,0,8.6,2.3,9.9,6.5c0.2,0.4,0,0.5-0.3,0.6l-0.7,0.2	c-0.3,0.1-0.5,0.1-0.6-0.3c-1.1-3.7-3.3-5.5-8.2-5.5c-5.6,0-8.4,2.9-8.4,7.6v9.2c0,4.8,2.9,7.7,8.4,7.7c5.5,0,8.4-2.9,8.4-7.5v-3.3	h-8.1c-0.3,0-0.5-0.2-0.5-0.5v-0.7c0-0.3,0.1-0.5,0.5-0.5h9.3c0.4,0,0.5,0.2,0.5,0.5v4.4c0,5.5-3.5,9.1-10.1,9.1	C230.6,198.4,227,194.9,227,189.1z" class="st1"/><path d="M253.6,197.4v-25.7c0-0.4,0.1-0.5,0.5-0.5h0.8c0.3,0,0.5,0.1,0.5,0.5v25.7c0,0.4-0.1,0.5-0.5,0.5H254	C253.7,197.9,253.6,197.8,253.6,197.4z" class="st1"/><path d="M260,197.5l10.4-26c0.1-0.3,0.3-0.5,0.6-0.5h0.7c0.4,0,0.5,0.1,0.6,0.5l10.4,26c0.2,0.3,0.1,0.5-0.3,0.5h-0.7	c-0.6,0-0.8-0.1-0.9-0.4l-3.3-8.3h-12.5l-3.3,8.3c-0.2,0.3-0.3,0.4-0.9,0.4h-0.6C260,197.9,259.9,197.7,260,197.5z M271.8,174.4	c-0.2-0.8-0.3-1.5-0.3-1.7h-0.1c0,0.2-0.1,0.9-0.3,1.6l-5.3,13.4h11.4L271.8,174.4z" class="st1"/><path d="M302.1,197.4v-10.5l-10.2-15.2c-0.2-0.3-0.1-0.5,0.3-0.5h1c0.6,0,0.7,0,0.9,0.4l8.9,13.5l8.9-13.5	c0.2-0.4,0.3-0.4,0.9-0.4h0.9c0.3,0,0.4,0.2,0.3,0.5L303.8,187v10.5c0,0.4-0.1,0.5-0.5,0.5h-0.8	C302.2,197.9,302.1,197.8,302.1,197.4z" class="st1"/><path d="M326.7,197.4v-25.7c0-0.4,0.1-0.5,0.5-0.5h7.7c7,0,10.9,3.8,10.9,9.9v6.9c0,6.1-3.9,9.9-10.9,9.9h-7.7	C326.8,197.9,326.7,197.8,326.7,197.4z M344.1,188v-6.9c0-5.2-3.2-8.3-9.2-8.3h-6.4v23.5h6.4C340.8,196.3,344.1,193.2,344.1,188z" class="st1"/><path d="M352.2,197.4v-25.7c0-0.4,0.1-0.5,0.5-0.5h0.8c0.3,0,0.5,0.1,0.5,0.5v25.7c0,0.4-0.1,0.5-0.5,0.5h-0.8	C352.3,197.9,352.2,197.8,352.2,197.4z" class="st1"/><path d="M359.8,191.9c-0.2-0.4-0.1-0.5,0.3-0.7l0.7-0.3c0.3-0.1,0.5-0.1,0.6,0.3c1.7,3.8,4.3,5.6,8.5,5.6	c5.5,0,8.2-2,8.2-5.9c0-4.4-3.9-5-8-5.5c-4.7-0.6-9.8-1.4-9.8-7.2c0-4.6,3.5-7.5,9.4-7.5c5,0,7.9,1.8,9.9,5.8	c0.2,0.3,0.1,0.5-0.3,0.6l-0.7,0.3c-0.3,0.1-0.5,0.1-0.6-0.2c-1.7-3.4-4-4.9-8.2-4.9c-4.9,0-7.7,2.1-7.7,5.7c0,4.4,4.2,5.1,8.4,5.6	c4.6,0.5,9.4,1.3,9.4,7.1c0,4.9-3.4,7.7-10,7.7C364.7,198.4,361.6,196.3,359.8,191.9z" class="st1"/><path d="M385.9,197.4v-25.7c0-0.4,0.1-0.5,0.5-0.5h15.4c0.3,0,0.5,0.1,0.5,0.5v0.7c0,0.3-0.2,0.5-0.5,0.5h-14.1v10.7	h12.5c0.4,0,0.5,0.2,0.5,0.5v0.7c0,0.4-0.1,0.5-0.5,0.5h-12.5v11.1h14.6c0.3,0,0.5,0.1,0.5,0.5v0.7c0,0.4-0.1,0.5-0.5,0.5h-15.9	C386.1,197.9,385.9,197.8,385.9,197.4z" class="st1"/><path d="M408.6,197.4v-25.7c0-0.4,0.1-0.5,0.5-0.5h0.8c0.3,0,0.4,0.2,0.5,0.3l13,18.6c1.4,2,2.5,4.1,3.4,5.3h0.1	c0-1.6-0.3-4.1-0.3-6.7v-17c0-0.3,0.1-0.5,0.5-0.5h0.8c0.4,0,0.5,0.1,0.5,0.5v25.7c0,0.4-0.1,0.5-0.5,0.5h-0.8c-0.3,0-0.4,0-0.6-0.3	l-13.3-19c-1.2-1.8-2.3-3.8-3-4.9H410c0,1.4,0.2,3.8,0.2,6.2v17.5c0,0.4-0.1,0.5-0.5,0.5H409C408.7,197.9,408.6,197.8,408.6,197.4z M412.6,168.5c0-2.3,1-3.5,2.8-3.5c2.7,0,3.7,2.7,5.9,2.7c1.2,0,1.8-1,1.8-2.4c0-0.2,0-0.3,0.3-0.3h0.5c0.2,0,0.3,0.1,0.3,0.3	c0,2.2-0.9,3.5-2.8,3.5c-2.7,0-3.7-2.7-5.9-2.7c-1.2,0-1.8,1-1.8,2.4c0,0.2-0.1,0.3-0.3,0.3h-0.5	C412.6,168.8,412.6,168.7,412.6,168.5z" class="st1"/><path d="M434.8,189.1V180c0-5.8,3.5-9.3,10.2-9.3c6.6,0,10.1,3.5,10.1,9.3v9.2c0,5.8-3.5,9.3-10.1,9.3	C438.3,198.4,434.8,194.9,434.8,189.1z M453.4,189.1V180c0-4.8-2.9-7.7-8.4-7.7c-5.5,0-8.4,2.9-8.4,7.7v9.1c0,4.8,2.9,7.7,8.4,7.7	C450.4,196.8,453.4,193.9,453.4,189.1z" class="st1"/><g><path d="M593.9,89.7h-1.2c0,0-1.7,9.6-6,18.7l-7.8,15.8h16.7l-2.1-15.7C592.4,99.5,593.9,89.7,593.9,89.7z" class="st0"/><path d="M678.1,151.6l-1.4-81.3c0-10.9-7.2-19.7-16.2-19.7l-143.2,8.5c-8.9,0-16.2,8.8-16.2,19.7v97 c0,10.9,7.2,19.7,16.2,19.7l142.5-20.7l18.4,23.1L678.1,151.6L678.1,151.6z M622.3,160.5h-13.8c-7,0-8.7-1.5-9.1-5.6l-0.7-5.3 c-0.3-2.5-2.5-4.3-5-4.3h-21.6c-1.9,0-3.6,1.1-4.5,2.8l-3.4,6.9c-1.9,4.2-4,5.6-10.6,5.6h-14.7c-4.2,0-4.6-1.9-2.5-5.5l45.8-84.9 c2-3.9,3.9-4.7,7.8-4.7H605c3.9,0,5.5,0.9,6.2,4.4l16.1,85.2C627.9,158.7,626.3,160.5,622.3,160.5z" class="st0"/></g></svg>